<svg enable-background="new 0 0 24 24" id="Layer_1" version="1.1" viewBox="0 0 24 24" xml:space="preserve" xmlns="http://www.w3.org/2000/svg" xmlns:xlink="http://www.w3.org/1999/xlink"><g><path d="M20.4365234,12.2392578c-0.0272827-0.0088501-0.0549316,0.0008545-0.0827026-0.0031128   C22.4992065,10.4498291,23.9990845,6.5653076,24,4.5c0-0.2021484-0.1220703-0.3842773-0.3085938-0.4619141   c-0.1855469-0.0776367-0.4013672-0.034668-0.5449219,0.1083984c-0.4296875,0.4296875-1.4423828,0.7983398-2.5136719,1.1879883   c-0.7275391,0.2645264-1.4619751,0.5519409-2.1574097,0.8827515C17.0853882,2.9786377,14.8314209,0,12,0   C9.1706543,0,6.9179688,2.9744263,5.5275269,6.2185669C4.8312378,5.887146,4.0957031,5.5993652,3.3671875,5.3344727   C2.2958984,4.9448242,1.2832031,4.5761719,0.8535156,4.1464844C0.7109375,4.003418,0.4951172,3.9609375,0.3085938,4.0380859   C0.1220703,4.1157227,0,4.2978516,0,4.5c0.0009155,2.1803589,1.6724243,6.3873291,4.0106812,8.0127563   c0.0081787,0.2406616,0.022644,0.5498047,0.0483398,0.8982544l-0.7484741,0.3741455   c-0.1582031,0.0795898-0.2636719,0.2368164-0.2753906,0.4140625C3.0166016,14.4746094,3,14.7490234,3,15.0043945   C3,19.9643555,7.0371094,24,12,24s9-4.0356445,9-8.9956055c0-0.6845703-0.0751953-1.4824219-0.2226562-2.3710938   C20.7470703,12.4487305,20.6152344,12.2963867,20.4365234,12.2392578z" fill="#303C42"></path><path d="M4.9990234,12.0355835C5.3144531,7.6941528,8.4628906,1,12,1c3.5380859,0,6.6865234,6.6948242,7,10.9990234   c0,0.0081177-0.0024414,0.5912476-0.0586548,1.3522949L17.5,14.7929688l-3.6464844-3.6464844   c-0.1796875-0.1801758-0.4667969-0.1962891-0.666028-0.0371094l-4.5165892,3.6137695l-1.2236328-2.4467773   c-0.1240234-0.2475586-0.4238281-0.3461914-0.6708984-0.2236328L5.0304565,12.925415   C5.0019531,12.4035645,4.9996948,12.0372314,4.9990234,12.0355835z" fill="#FFCA28"></path><path d="M12.5,2c1.8634644,0,3.6140747,1.8625488,4.9041138,4.2495117   C16.0899048,3.4013672,14.1173706,1,12,1C8.4628906,1,5.3144531,7.6941528,4.9990234,12.0355835   c0.0006714,0.0016479,0.0029297,0.367981,0.0314331,0.8898315l0.5083618-0.2540894C5.9934692,8.3299561,9.0588379,2,12.5,2z" fill="#FFFFFF" opacity="0.2"></path><path d="M12,23c-4.4111328,0-8-3.5869141-8-7.9956055c0-0.1455078,0.0058594-0.2978516,0.0146484-0.4536133   l2.7617188-1.3798828l1.2763672,2.5527344c0.0673828,0.1352539,0.1923828,0.2324219,0.3398438,0.2646484   c0.1474609,0.0307617,0.3007812-0.0039062,0.4199095-0.0976562l4.650403-3.7207031l3.6835938,3.6835938   c0.1875,0.1875,0.5195312,0.1875,0.7070312,0l2.0742188-2.0742188C19.9755859,14.2241211,20,14.6337891,20,15.0043945   C20,19.4130859,16.4111328,23,12,23z" fill="#FAFAFA"></path><path d="M19.9277344,13.7792969l-1.0464478,1.0464478C18.2479858,18.6064453,14.9598389,21.5,11,21.5   c-2.447998,0-4.6398926-1.1072998-6.1085815-2.8441162C6.2214966,21.2315674,8.9055786,23,12,23   c4.4111328,0,8-3.5869141,8-7.9956055C20,14.6337891,19.9755859,14.2241211,19.9277344,13.7792969z" opacity="0.1"></path><path d="M10,8c0.5605469,0,1-0.5488281,1-1.25S10.5605469,5.5,10,5.5S9,6.0488281,9,6.75S9.4394531,8,10,8z" fill="#303C42"></path><path d="M14,8c0.5605469,0,1-0.5488281,1-1.25S14.5605469,5.5,14,5.5s-1,0.5488281-1,1.25S13.4394531,8,14,8z" fill="#303C42"></path><path d="M10.6464844,8.6464844c-0.1953125,0.1953125-0.1953125,0.5117188,0,0.7070312l1,1   C11.7441406,10.4511719,11.8720703,10.5,12,10.5s0.2558594-0.0488281,0.3535156-0.1464844l1-1   c0.1953125-0.1953125,0.1953125-0.5117188,0-0.7070312s-0.5117188-0.1953125-0.7070312,0L12,9.2929688l-0.6464844-0.6464844   C11.1582031,8.4511719,10.8417969,8.4511719,10.6464844,8.6464844z" fill="#303C42"></path><path d="M20.9746094,6.2744141c0.7167969-0.2612305,1.3769531-0.5009766,1.9189453-0.7719727   c-0.3479614,1.843811-1.5123901,4.4256592-2.968689,5.7822266c-0.1613159-1.2191162-0.5299683-2.6765137-1.0774536-4.1386719   C19.5172729,6.8215942,20.2479248,6.5384521,20.9746094,6.2744141z" fill="#FFCA28"></path><path d="M1.1064453,5.5024414c0.5419922,0.2709961,1.2021484,0.5107422,1.9189453,0.7719727   C3.7532959,6.5388794,4.4851685,6.8225098,5.1558838,7.147583c-0.5452271,1.4581909-0.9145508,2.9147339-1.0784912,4.1394653   C2.6199951,9.9310913,1.4545898,7.347229,1.1064453,5.5024414z" fill="#FFCA28"></path><path d="M20.9746094,7.138855c0.6025391-0.1817017,1.1480713-0.3535767,1.6340332-0.5360718   c0.1182861-0.3825073,0.2200317-0.7564087,0.2849121-1.1003418c-0.5419922,0.2709961-1.2021484,0.5107422-1.9189453,0.7719727   c-0.7266846,0.2640381-1.4573364,0.5471802-2.1271973,0.871582c0.0795288,0.2123413,0.1469116,0.4230347,0.218811,0.6344604   C19.6765747,7.5464478,20.3242188,7.3344116,20.9746094,7.138855z" fill="#FFFFFF" opacity="0.2"></path><path d="M3.0253906,7.138855C3.677063,7.3347778,4.3259277,7.5471802,4.9373169,7.7818604   C5.0090942,7.5704346,5.0765381,7.3597412,5.1558838,7.147583C4.4851685,6.8225098,3.7532959,6.5388794,3.0253906,6.2744141   C2.3085938,6.0131836,1.6484375,5.7734375,1.1064453,5.5024414c0.0648804,0.3438721,0.166626,0.7178345,0.2849121,1.1003418   C1.8773804,6.7852783,2.4228516,6.9570923,3.0253906,7.138855z" fill="#FFFFFF" opacity="0.2"></path><linearGradient gradientUnits="userSpaceOnUse" id="SVGID_1_" x1="-0.6790962" x2="21.3990479" y1="5.8456941" y2="16.1409016"><stop offset="0" style="stop-color:#FFFFFF;stop-opacity:0.2"></stop><stop offset="1" style="stop-color:#FFFFFF;stop-opacity:0"></stop></linearGradient><path d="M20.4365234,12.2392578c-0.0272827-0.0088501-0.0549316,0.0008545-0.0827026-0.0031128   C22.4992065,10.4498291,23.9990845,6.5653076,24,4.5c0-0.2021484-0.1220703-0.3842773-0.3085938-0.4619141   c-0.1855469-0.0776367-0.4013672-0.034668-0.5449219,0.1083984c-0.4296875,0.4296875-1.4423828,0.7983398-2.5136719,1.1879883   c-0.7275391,0.2645264-1.4619751,0.5519409-2.1574097,0.8827515C17.0853882,2.9786377,14.8314209,0,12,0   C9.1706543,0,6.9179688,2.9744263,5.5275269,6.2185669C4.8312378,5.887146,4.0957031,5.5993652,3.3671875,5.3344727   C2.2958984,4.9448242,1.2832031,4.5761719,0.8535156,4.1464844C0.7109375,4.003418,0.4951172,3.9609375,0.3085938,4.0380859   C0.1220703,4.1157227,0,4.2978516,0,4.5c0.0009155,2.1803589,1.6724243,6.3873291,4.0106812,8.0127563   c0.0081787,0.2406616,0.022644,0.5498047,0.0483398,0.8982544l-0.7484741,0.3741455   c-0.1582031,0.0795898-0.2636719,0.2368164-0.2753906,0.4140625C3.0166016,14.4746094,3,14.7490234,3,15.0043945   C3,19.9643555,7.0371094,24,12,24s9-4.0356445,9-8.9956055c0-0.6845703-0.0751953-1.4824219-0.2226562-2.3710938   C20.7470703,12.4487305,20.6152344,12.2963867,20.4365234,12.2392578z" fill="url(#SVGID_1_)"></path></g><g></g><g></g><g></g><g></g><g></g><g></g><g></g><g></g><g></g><g></g><g></g><g></g><g></g><g></g><g></g></svg>