<svg id="egghatch" style="enable-background:new 0 0 300 300;" version="1.1" viewBox="0 0 300 300" xml:space="preserve" xmlns="http://www.w3.org/2000/svg" xmlns:xlink="http://www.w3.org/1999/xlink"><g><polyline points="   198,52.783 228.282,44 207.028,66.477 234,61.423 215.656,76  " style="fill-rule:evenodd;clip-rule:evenodd;fill:#8C6B3B;stroke:#000000;stroke-width:8;stroke-linecap:round;stroke-linejoin:round;stroke-miterlimit:10;"></polyline><path d="   M94,92.023C94,63.292,117.254,40,145.97,40h24.059C198.732,40,222,63.302,222,92.023V148H94V92.023z" style="fill-rule:evenodd;clip-rule:evenodd;fill:#FBAD4A;stroke:#000000;stroke-width:8;stroke-linecap:round;stroke-linejoin:round;stroke-miterlimit:10;"></path><circle cx="182" cy="72" r="16" style="fill-rule:evenodd;clip-rule:evenodd;fill:#26BBEC;stroke:#000000;stroke-width:8;stroke-linecap:round;stroke-linejoin:round;stroke-miterlimit:10;"></circle><circle cx="180" cy="70" r="6" style="fill-rule:evenodd;clip-rule:evenodd;"></circle><path d="   M154,268c57.948,0,84-35.66,84-104.418c-14.132-20.665-23.81-39.713-23.81-39.713l-39.165,22.602L145.756,76l-34.805,70.471   L84.255,95.464c0,0-14.255,43.477-14.255,68.118C70,232.34,96.052,268,154,268z" style="fill-rule:evenodd;clip-rule:evenodd;fill:#FFDD95;stroke:#000000;stroke-width:8;stroke-linecap:round;stroke-linejoin:round;stroke-miterlimit:10;"></path></g><g></g><g></g><g></g><g></g><g></g><g></g><g></g><g></g><g></g><g></g><g></g><g></g><g></g><g></g><g></g></svg>