<svg enable-background="new 0 0 24 24" id="Layer_1" version="1.1" viewBox="0 0 24 24" xml:space="preserve" xmlns="http://www.w3.org/2000/svg" xmlns:xlink="http://www.w3.org/1999/xlink"><g><path d="M12,0C6.890625,0,3,10,3,15.0043945C3,19.9643555,7.0371094,24,12,24s9-4.0356445,9-8.9956055   C21,10,17.109375,0,12,0z" fill="#303C42"></path><path d="M4.9195557,9.8687134l1.9603271-0.7822876l0.7666016,0.7666016   c0.1884766,0.1875,0.4882812,0.1962891,0.6855469,0.0200195l4.1005859-3.6445312l3.1728516,4.0786133   C15.7011719,10.4296875,15.8466797,10.5,16,10.5c0.0234375,0,0.046875-0.0014648,0.0703125-0.0048828l3.0679321-0.4346313   c0.2567749,0.847168,0.4619141,1.6849365,0.6071167,2.4871216l-2.2922363,2.2922363l-3.6533203-2.7397461   c-0.1630859-0.1230469-0.3847656-0.1342773-0.5566406-0.0288086l-4.5371094,2.722168l-1.2587891-2.5170898   c-0.1220703-0.2436523-0.4189453-0.34375-0.6611328-0.2280273l-2.6523438,1.2573242   C4.2807007,12.2266235,4.5501099,11.0528564,4.9195557,9.8687134z" fill="#FFCA28"></path><linearGradient gradientUnits="userSpaceOnUse" id="SVGID_1_" x1="7.3706055" x2="16.1229553" y1="7.4176636" y2="16.1700134"><stop offset="0" style="stop-color:#000000;stop-opacity:0.1"></stop><stop offset="1" style="stop-color:#000000;stop-opacity:0"></stop></linearGradient><path d="M4.9195557,9.8687134l1.9603271-0.7822876l0.7666016,0.7666016   c0.1884766,0.1875,0.4882812,0.1962891,0.6855469,0.0200195l4.1005859-3.6445312l3.1728516,4.0786133   C15.7011719,10.4296875,15.8466797,10.5,16,10.5c0.0234375,0,0.046875-0.0014648,0.0703125-0.0048828l3.0679321-0.4346313   c0.2567749,0.847168,0.4619141,1.6849365,0.6071167,2.4871216l-2.2922363,2.2922363l-3.6533203-2.7397461   c-0.1630859-0.1230469-0.3847656-0.1342773-0.5566406-0.0288086l-4.5371094,2.722168l-1.2587891-2.5170898   c-0.1220703-0.2436523-0.4189453-0.34375-0.6611328-0.2280273l-2.6523438,1.2573242   C4.2807007,12.2266235,4.5501099,11.0528564,4.9195557,9.8687134z" fill="url(#SVGID_1_)"></path><path d="M4.5386648,11.3737955c0.148612-0.5413408,0.5628133-0.9709044,1.084199-1.1789713l1.12323-0.4482422   l0.7664795,0.7664185c0.1871977,0.1871824,0.4878502,0.1960211,0.6857195,0.0201578l3.3815203-3.0054379   c0.3892574-0.3459659,0.9899035-0.2908287,1.3096704,0.1202226l2.5821962,3.3193421   c0.0957031,0.1225586,0.2412109,0.1928711,0.3945312,0.1928711c0.0234375,0,0.046875-0.0014648,0.0703125-0.0048828   l2.3707905-0.3358583c0.3943386-0.0558643,0.7833042,0.1810951,0.8883057,0.5652809   c0.129652,0.4743729,0.2247829,0.935174,0.3182964,1.3943567l0.2314453-0.2314453   c-0.1452026-0.8021851-0.3503418-1.6399536-0.6071167-2.4871216l-3.0679321,0.4346313   C16.046875,10.4985352,16.0234375,10.5,16,10.5c-0.1533203,0-0.2988281-0.0703125-0.3945312-0.1928711l-3.1728516-4.0786133   L8.331872,9.873189c-0.1977758,0.1757793-0.4982867,0.1669397-0.6853876-0.0201616L6.8798828,9.0864258L4.9195557,9.8687134   c-0.251709,0.8067017-0.4367676,1.5961304-0.588501,2.3665771C4.3971763,11.9492416,4.4586906,11.6651134,4.5386648,11.3737955z" opacity="0.1"></path><path d="M12,0.9956055c1.8691406,0,3.8955078,1.8613281,5.5605469,5.1064453   c0.4818115,0.93927,0.904541,1.9598999,1.263916,2.9927979l-2.607666,0.3695068l-3.3222656-4.2714844   c-0.0849609-0.1088867-0.2109375-0.1782227-0.3486328-0.190918c-0.1396484-0.012207-0.2744141,0.0317383-0.3779297,0.1245117   L8.0205078,8.8125L7.3535156,8.1464844C7.2119141,8.0043945,7,7.9628906,6.8144531,8.0356445L5.3435669,8.6226807   C5.6658325,7.7524414,6.03125,6.8978271,6.4394531,6.1020508C8.1044922,2.8569336,10.1308594,0.9956055,12,0.9956055z" fill="#FAFAFA"></path><path d="M12,22.9956055c-4.4111328,0-8-3.5869141-8-7.9956055c0-0.170105,0.015625-0.3566895,0.0247192-0.536499   l2.7467651-1.3018799l1.28125,2.5620117c0.0625,0.1245117,0.1738281,0.2172852,0.3076172,0.2563477   c0.1337891,0.0385742,0.2773438,0.0195312,0.3964844-0.0512695l4.7119141-2.8271484l3.7314453,2.7983398   C17.2890625,15.9672852,17.3945312,16,17.5,16c0.1289062,0,0.2568359-0.0493164,0.3535156-0.1464844l2.0716553-2.0716553   C19.9695435,14.2072144,20,14.6196899,20,15C20,19.4086914,16.4111328,22.9956055,12,22.9956055z" fill="#FAFAFA"></path><ellipse cx="10.5" cy="9.25" fill="#303C42" rx="0.5" ry="0.75"></ellipse><ellipse cx="13.5" cy="9.25" fill="#303C42" rx="0.5" ry="0.75"></ellipse><path d="M11.1464844,11.3535156l0.5,0.5C11.7441406,11.9511719,11.8720703,12,12,12   s0.2558594-0.0488281,0.3535156-0.1464844l0.5-0.5c0.1953125-0.1953125,0.1953125-0.5117188,0-0.7070312   s-0.5117188-0.1953125-0.7070312,0L12,10.7929688l-0.1464844-0.1464844c-0.1953125-0.1953125-0.5117188-0.1953125-0.7070312,0   S10.9511719,11.1582031,11.1464844,11.3535156z" fill="#303C42"></path><path d="M18.8244629,9.0948486c-0.359375-1.0328979-0.7821045-2.0535278-1.263916-2.9927979   c-0.9899292-1.9293213-2.1080933-3.3551636-3.2444458-4.2058716c1.5320435,1.9290161,2.7766113,4.7352905,3.4986572,7.3417358   L18.8244629,9.0948486z" opacity="0.1"></path><path d="M19.9251709,13.7818604l-1.677002,1.677002C17.3720703,18.9241333,14.2354736,21.5,10.5,21.5   c-1.8209839,0-3.4963379-0.618103-4.8424072-1.6461182C7.1211548,21.7595825,9.4161377,22.9956055,12,22.9956055   c4.4111328,0,8-3.5869141,8-7.9956055C20,14.6196899,19.9695435,14.2072144,19.9251709,13.7818604z" opacity="0.1"></path><linearGradient gradientUnits="userSpaceOnUse" id="SVGID_2_" x1="4.1756783" x2="21.2096233" y1="8.6040668" y2="16.5471268"><stop offset="0" style="stop-color:#FFFFFF;stop-opacity:0.2"></stop><stop offset="1" style="stop-color:#FFFFFF;stop-opacity:0"></stop></linearGradient><path d="M12,0C6.890625,0,3,10,3,15.0043945C3,19.9643555,7.0371094,24,12,24s9-4.0356445,9-8.9956055   C21,10,17.109375,0,12,0z" fill="url(#SVGID_2_)"></path></g><g></g><g></g><g></g><g></g><g></g><g></g><g></g><g></g><g></g><g></g><g></g><g></g><g></g><g></g><g></g></svg>